Patient4_TMGait_0pt8_01_right_38_EMG.mot
version=1
nRows=30
nColumns=33
inDegrees=no
endheader
time	1LAddLong	2LGlutMax	3LGlutMed	4LIliopsoas	5LSemiMemb	6LBicFemLong	7LRecFem	8LVastMed	9LVastLat	10LGasMed	11LTibAnt	12lTibPost	13LPeroneusLong	14LSol	15LExtDigLong	16LFlexDigLong	17RAddLong	18RGlutMax	19RGlutMed	20RIliopsoas	21RSemiMemb	22RBicFemLong	23RRecFem	24RVastMed	25RVastLat	26RGasMed	27RTibAnt	28RTibPost	29RPeroneusLong	30RSol	31RExtDigLong	32RFlexDigLong
43.818	-0.00885	0.32715	0.002899	-0.001373	0.018921	0.14893	0.42007	-0.003204	-0.016479	0.4541	0.033722	-0.039978	0.029449	-0.24429	0.015564	-0.05249	-0.042419	-0.16632	-0.11429	-0.044556	-0.014648	0.007019	-0.00824	-0.11597	-0.010529	-0.003357	0.18112	-0.006866	-0.34897	-0.079346	0.010986	0.02594
43.819	-0.015564	0.32806	-0.014191	-0.007935	0.012665	0.24521	0.41885	0.001831	-0.030365	0.35767	0.025482	-0.012054	0.10178	-0.52139	-0.001984	-0.064545	-0.045776	-0.18295	-0.35721	0.011444	-0.024567	0.007935	0.014496	-0.13138	-0.011444	-0.015106	0.12726	-0.005493	-0.78919	-0.031281	0.010986	0.021667
43.82	-0.014648	0.3035	-0.005341	0.000153	-0.020142	0.09491	0.39398	0.001068	-0.013123	0.032349	0.029144	-0.00351	0.045624	-0.19455	0.007172	-0.003662	-0.053864	-0.19745	-0.16357	0.045319	-0.059814	0.02594	-0.005951	-0.10147	0.000305	-0.01358	-0.01358	-0.008698	-0.56137	-0.019531	0.014954	0.026398
43.821	-0.022278	0.30914	-0.018158	0.004272	-0.014648	-0.075836	0.38513	-0.002441	-0.007324	-0.37323	0.036163	0.000916	-0.026855	0.14664	0.034485	0.075989	-0.063324	-0.14374	0.031433	-0.014954	-0.047913	0.014038	0.014648	-0.081177	-0.0177	-0.00885	-0.075073	-0.001526	0.026093	-0.043945	0.015106	0.018768
43.822	-0.02655	0.28885	-0.022736	-0.003967	0.018768	-0.12528	0.3746	-0.006714	0.002747	-0.62424	0.024261	-0.015869	-0.00061	0.13092	0.048065	-0.007782	-0.042114	-0.10574	0.22232	-0.041351	-0.026855	-0.009766	-0.00946	-0.095367	0.002289	-0.002289	-0.026855	-0.00473	0.21805	-0.036316	0.018616	0.016785
43.823	-0.000458	0.25085	-0.054321	0.01236	0.043945	-0.0914	0.36407	-0.000153	-0.01709	-0.4071	0.015106	-0.021515	-0.060577	0.06073	0.032196	0.00946	-0.032349	-0.094147	0.13641	-0.10132	-0.019531	-0.001678	-0.023956	-0.10117	0.002594	-0.000763	0.007172	-0.00946	0.7373	-0.086365	0.014801	0.011597
43.824	-0.012512	0.26016	-0.059052	0.012665	0.009003	-0.12024	0.30991	0.001678	-0.010223	0.061951	0.027466	-0.029297	-0.067139	-0.12283	0.022888	0.050049	-0.02243	-0.090027	-0.15762	-0.070648	-0.005798	0.003357	-0.010376	-0.086212	-0.006714	-0.013123	-0.002136	-0.014496	0.56625	-0.065613	0.016632	0.011444
43.825	0.02121	0.2504	-0.064545	0.015564	-0.001373	-0.14832	0.29755	-0.011139	-0.012512	1.0529	0.009766	-0.040283	-0.036774	-0.11963	0.028229	-0.18204	-0.010681	-0.066833	-0.19455	-0.036011	0.008087	0.017395	0.014038	-0.075226	-0.010529	-0.013733	0.03418	-0.003662	0.30991	-0.053711	0.016327	0.001984
43.826	0.040588	0.23239	-0.025787	0.013428	0.033417	-0.18723	0.3096	-0.002289	-0.033569	2.0049	0.01297	-0.030365	-0.057983	0.096741	0.035706	-0.21698	0.10498	-0.000916	-0.26062	-0.094299	0.011292	0.023956	-0.020752	-0.093384	-0.012207	-0.01358	0.085144	-0.008392	0.18433	-0.063019	0.015106	0.009766
43.827	0.026398	0.20477	0.068817	0.007324	0.037689	-0.077057	0.29373	0.003204	-0.059967	1.7422	0.007782	-0.022736	-0.028534	0.43945	0.060425	-0.23865	0.1857	0.013428	-0.22354	-0.14114	0.014496	0.002441	0.000305	-0.10986	-0.006104	-0.016479	0.088043	-0.003815	0.041351	-0.049896	0.012665	0.006409
43.828	0.012207	0.15747	0.041809	-0.004578	0.015411	0.11581	0.34531	-0.005493	-0.049744	0.097504	0.01709	0.008392	-0.006866	0.53925	0.020752	-0.32227	0.17212	-0.025635	-0.34103	-0.007782	-0.032654	-0.006256	0.010834	-0.085297	0.000458	-0.018768	0.085144	-0.003815	-0.85403	-0.085907	0.016479	0.004425
43.829	0.008392	0.14618	0.04837	-0.007782	-0.015717	0.055695	0.37689	-0.011139	-0.068359	-0.98724	0.015869	-0.03952	0.032806	0.15228	-0.033112	0.3154	0.12878	0.00351	-0.35523	0.074463	-0.14038	0.013428	0.002899	-0.097809	-0.002136	-0.028992	0.059509	-0.008545	-0.67291	-0.068359	0.017395	-0.007324
43.83	0.010834	0.14648	0.032654	0.00351	0.001526	0.016632	0.35111	-0.010223	-0.068817	-1.0323	0.011444	0.1683	-0.099487	0.10117	-0.009918	0.2211	0.062561	0.007019	-0.37033	0.16251	-0.18158	-0.004578	-0.008087	-0.053558	-0.00885	-0.030518	0.015869	-0.01236	0.4686	0.029602	0.015564	-0.02594
43.831	0.006256	0.17563	-0.003357	-0.000305	0.019684	-0.055695	0.2298	-0.006104	0.025635	-1.0391	0.018463	0.16403	-0.21561	0.27496	-0.007324	-0.81482	0.023041	0.002899	-0.57159	0.25711	-0.18509	-0.029144	0.002594	-0.093231	-0.024414	-0.025787	0.089722	-0.005035	0.67017	0.036011	0.013428	-0.040741
43.832	-0.006866	0.21606	0.009766	0.007477	-0.032501	-0.015106	0.17227	0.001373	0.11444	-0.83435	0.012665	-0.088043	-0.28519	0.16312	-0.080872	0.70465	-0.053253	0.033417	-0.76218	0.16266	-0.15976	0.04715	-0.011444	-0.06546	-0.010223	-0.02121	0.16281	-0.003204	0.23926	-0.001831	0.011292	-0.034485
43.833	-0.003357	0.30746	0.023346	0.006409	-0.035248	-0.014343	0.092926	0.020294	0.15503	-0.24475	0.022125	0.049591	-0.17044	0.70633	-0.11643	0.5925	-0.12207	0.059967	-0.8667	0.060272	0.027313	0.13901	-0.033722	-0.016937	0.002289	-0.024109	0.18585	-0.005035	-0.063171	-0.019379	0.014954	-0.007782
43.834	0.001678	0.3865	0.031891	0.00061	0.030365	-0.15854	-0.034485	0.036621	0.25757	-0.1709	0.014954	0.030975	0.15579	0.9111	-0.098114	0.02121	-0.1004	0.024109	-0.27878	-0.015869	-0.019836	0.15228	-0.023346	0.001373	-0.00412	-0.023956	0.2742	-0.003052	-0.19791	0.008545	0.014496	-0.029144
43.835	-0.006104	0.39139	0.065765	0.01297	0.054169	-0.096283	0.025635	0.022736	0.23163	-1.0359	0.003204	0.05722	0.21393	0.29846	-0.094147	0.16266	-0.085144	0.084991	0.77377	-0.039215	0.22385	0.11078	-0.034485	-0.024567	0.013275	-0.023499	0.27329	-0.003204	-0.067596	-0.013733	0.016632	-0.02243
43.836	0.001984	0.26916	0.06073	0.009308	0.043793	0.17746	0.18158	0.00946	0.2681	-0.72906	0.014496	-0.027313	0.12299	-0.42954	-0.11383	0.52597	-0.081482	0.037537	1.183	-0.11154	0.09613	0.072784	-0.061798	-0.037231	0.024719	-0.024414	-0.054779	-0.000458	0.017395	-0.055237	0.009918	-0.018463
43.837	0.006409	0.15015	0.11246	0.006561	0.046082	0.24979	0.39902	0.000305	-0.32654	-0.34241	0.010681	-0.085144	0.019073	0.070343	-0.060577	-0.10529	-0.067139	-0.075073	0.65659	-0.13565	-0.0383	0.032043	-0.055542	-0.038605	0.025177	-0.022888	-0.09201	-0.003967	-0.027466	-0.063171	0.010986	-0.014191
43.838	0.01297	0.1091	0.1413	-0.008392	0.053864	0.17578	0.30975	-0.016632	-0.35065	-0.25101	-0.002594	0.035095	-0.001526	0.072174	-0.013428	-1.0501	-0.051727	-0.09201	0.73502	0.001678	-0.054779	0.018921	-0.093231	-0.012512	0.034637	-0.024109	-0.08667	-0.002747	-0.024261	-0.07309	0.012207	-0.013275
43.839	0.006104	0.031891	0.13702	0.010986	0.049591	0.15717	0.24811	-0.02182	-0.18692	-0.21591	0.021057	-0.10651	-0.000305	-0.032959	0.019836	0.25452	-0.05127	-0.15274	0.19699	0.10422	-0.02182	0.066223	-0.07431	-0.00412	0.025482	-0.028076	-0.32883	-0.007019	-0.10681	-0.065155	0.007019	-0.005035
43.84	0.007629	0.052032	0.13184	0.004425	0.03006	0.016022	0.20294	-0.037537	-0.12589	-0.16357	0.010223	-0.084229	0.031433	0.27603	0.017548	0.30868	-0.066223	-0.087585	0.002289	0.14358	0.032806	0.074158	-0.066528	-0.03006	0.036774	-0.030823	-0.13565	-0.003662	-0.18021	-0.099335	0.010529	-0.018311
43.841	-0.00824	0.11215	0.097351	0.00824	0.022888	-0.28107	0.19073	-0.032806	-0.10208	-0.12558	-0.03067	-0.051422	0.035553	0.37354	0.00351	-0.037384	-0.06485	-0.080719	-0.023956	0.087738	0.069885	0.070496	-0.054169	-0.020599	0.028076	-0.028992	0.16266	0.005035	-0.10971	-0.12482	0.012817	-0.01236
43.842	-0.012207	0.10925	0.15121	0.00885	0.031586	-0.35126	0.18875	-0.026093	-0.055389	-0.10681	0.000305	-0.22888	0.046844	0.029449	-0.000458	0.058746	-0.032196	-0.023956	0.04715	-0.008087	0.010071	0.057373	-0.076141	-0.029449	0.012054	-0.023499	0.006409	-0.008392	-0.045471	-0.089874	0.010071	-0.007782
43.843	-0.002747	0.034027	0.121	-0.007172	0.049896	-0.1297	0.18723	-0.015717	-0.013733	-0.059814	-0.005035	0.3447	0.040894	-0.19012	-0.00351	-0.11643	-0.011139	-0.066376	0.023499	-0.058136	-0.014191	0.026093	-0.084534	-0.024719	0.028229	-0.023499	0.000916	-0.006104	0.10071	-0.001221	0.004883	-0.019989
43.844	0.005188	0.070038	0.12756	0.006561	0.033264	0.11368	0.15701	-0.005951	0.013123	-0.063324	0.01236	0.06134	0.033417	-0.22766	0.003815	0.38635	-0.010071	0.010529	-0.002594	-0.082092	-0.024261	0.019836	-0.070343	-0.042572	0.031128	-0.0177	-0.10834	-0.007629	0.23621	0.063171	0.004272	-0.012817
43.845	-0.001526	0.11597	-0.013123	0.011597	0.027466	0.35019	0.15243	-0.010071	-0.03067	-0.067749	0.013885	-0.10056	-0.019531	-0.17197	0.019684	-0.048065	0.002899	-0.015717	-0.3952	-0.072174	-0.030823	0.01358	-0.095978	-0.045624	0.023804	0.001526	-0.017853	-0.00412	0.047455	0.040894	0.001221	-0.010986
43.846	-0.001068	0.10895	-0.034485	0.007935	0.030365	0.50308	0.21286	-0.013275	-0.082397	-0.10239	0.013733	-0.097656	-0.019989	-0.12665	0.024109	-0.052185	0.012817	0.001984	-0.73044	-0.026855	-0.024872	0.015869	-0.088654	-0.058746	0.021362	0.004883	-0.026245	-0.003967	-0.08255	0.022278	0.008545	-0.014954
43.847	-0.002136	0.13855	0.028992	0.028534	0.012207	0.39215	0.18539	-0.007935	-0.038757	-0.10101	0.007629	-0.060425	-0.016479	-0.13733	0.010834	-0.059357	-0.010071	-0.001068	-0.75714	-0.01236	-0.030823	0.015259	-0.12604	-0.11536	0.023956	0.026855	-0.19348	-0.003204	-0.11337	-0.019379	0.005951	-0.007324
